<mxfile host="app.diagrams.net" modified="2023-08-30T08:16:56.077Z" agent="Mozilla/5.0 (Macintosh; Intel Mac OS X 10_15_7) AppleWebKit/537.36 (KHTML, like Gecko) Chrome/116.0.0.0 Safari/537.36" etag="eivXaxVIcqpW4oLpf0Td" version="21.6.9" type="github">
  <diagram id="C5RBs43oDa-KdzZeNtuy" name="Page-1">
    <mxGraphModel dx="1546" dy="830" grid="1" gridSize="10" guides="1" tooltips="1" connect="1" arrows="1" fold="1" page="1" pageScale="1" pageWidth="827" pageHeight="1169" math="0" shadow="0">
      <root>
        <mxCell id="WIyWlLk6GJQsqaUBKTNV-0" />
        <mxCell id="WIyWlLk6GJQsqaUBKTNV-1" parent="WIyWlLk6GJQsqaUBKTNV-0" />
        <mxCell id="BPinNGArFGeDi93wMm6D-1" value="Config" style="swimlane;fontStyle=1;align=center;verticalAlign=top;childLayout=stackLayout;horizontal=1;startSize=26;horizontalStack=0;resizeParent=1;resizeParentMax=0;resizeLast=0;collapsible=1;marginBottom=0;whiteSpace=wrap;html=1;" vertex="1" parent="WIyWlLk6GJQsqaUBKTNV-1">
          <mxGeometry x="190" y="50" width="250" height="184" as="geometry" />
        </mxCell>
        <mxCell id="BPinNGArFGeDi93wMm6D-2" value="+ SecureServing: *SecureServingInfo&lt;br&gt;+ InsecureServing: *InsecureServingInfo&lt;br&gt;+ Jwt: *JwtInfo&lt;br&gt;+ Mode: string&lt;br&gt;+ Middlewares: [ ]string&lt;br&gt;+ Healthz: bool&lt;br&gt;+ EnableProfiling: bool&lt;br&gt;+ EnableMetrics: bool" style="text;strokeColor=none;fillColor=none;align=left;verticalAlign=top;spacingLeft=4;spacingRight=4;overflow=hidden;rotatable=0;points=[[0,0.5],[1,0.5]];portConstraint=eastwest;whiteSpace=wrap;html=1;" vertex="1" parent="BPinNGArFGeDi93wMm6D-1">
          <mxGeometry y="26" width="250" height="124" as="geometry" />
        </mxCell>
        <mxCell id="BPinNGArFGeDi93wMm6D-3" value="" style="line;strokeWidth=1;fillColor=none;align=left;verticalAlign=middle;spacingTop=-1;spacingLeft=3;spacingRight=3;rotatable=0;labelPosition=right;points=[];portConstraint=eastwest;strokeColor=inherit;" vertex="1" parent="BPinNGArFGeDi93wMm6D-1">
          <mxGeometry y="150" width="250" height="8" as="geometry" />
        </mxCell>
        <mxCell id="BPinNGArFGeDi93wMm6D-4" value="+ Complete(): CompletedConfig" style="text;strokeColor=none;fillColor=none;align=left;verticalAlign=top;spacingLeft=4;spacingRight=4;overflow=hidden;rotatable=0;points=[[0,0.5],[1,0.5]];portConstraint=eastwest;whiteSpace=wrap;html=1;" vertex="1" parent="BPinNGArFGeDi93wMm6D-1">
          <mxGeometry y="158" width="250" height="26" as="geometry" />
        </mxCell>
        <mxCell id="BPinNGArFGeDi93wMm6D-5" value="CompletedConfig" style="swimlane;fontStyle=1;align=center;verticalAlign=top;childLayout=stackLayout;horizontal=1;startSize=26;horizontalStack=0;resizeParent=1;resizeParentMax=0;resizeLast=0;collapsible=1;marginBottom=0;whiteSpace=wrap;html=1;" vertex="1" parent="WIyWlLk6GJQsqaUBKTNV-1">
          <mxGeometry x="80" y="360" width="290" height="60" as="geometry" />
        </mxCell>
        <mxCell id="BPinNGArFGeDi93wMm6D-8" value="+ New(): *GenericAPIServer,error" style="text;strokeColor=none;fillColor=none;align=left;verticalAlign=top;spacingLeft=4;spacingRight=4;overflow=hidden;rotatable=0;points=[[0,0.5],[1,0.5]];portConstraint=eastwest;whiteSpace=wrap;html=1;" vertex="1" parent="BPinNGArFGeDi93wMm6D-5">
          <mxGeometry y="26" width="290" height="34" as="geometry" />
        </mxCell>
        <mxCell id="BPinNGArFGeDi93wMm6D-9" value="GenericAPIServer" style="swimlane;fontStyle=1;align=center;verticalAlign=top;childLayout=stackLayout;horizontal=1;startSize=26;horizontalStack=0;resizeParent=1;resizeParentMax=0;resizeLast=0;collapsible=1;marginBottom=0;whiteSpace=wrap;html=1;" vertex="1" parent="WIyWlLk6GJQsqaUBKTNV-1">
          <mxGeometry x="440" y="295" width="260" height="290" as="geometry" />
        </mxCell>
        <mxCell id="BPinNGArFGeDi93wMm6D-10" value="- middlewares: []string&lt;br&gt;+ SecureServingInfo: *SecureServingInfo&lt;br&gt;+ InsecureServingInfo: *InsecureServingInfo&lt;br&gt;+ ShutdownTimeout: time.Duration&lt;br&gt;+ : *gin.Engine&lt;br&gt;- healthz: bool&lt;br&gt;- enableProfiling: bool&lt;br&gt;- enableMetrics: bool&lt;br&gt;- insecureServer: *http.Server&lt;br&gt;- secureServer: *http.Server" style="text;strokeColor=none;fillColor=none;align=left;verticalAlign=top;spacingLeft=4;spacingRight=4;overflow=hidden;rotatable=0;points=[[0,0.5],[1,0.5]];portConstraint=eastwest;whiteSpace=wrap;html=1;" vertex="1" parent="BPinNGArFGeDi93wMm6D-9">
          <mxGeometry y="26" width="260" height="154" as="geometry" />
        </mxCell>
        <mxCell id="BPinNGArFGeDi93wMm6D-11" value="" style="line;strokeWidth=1;fillColor=none;align=left;verticalAlign=middle;spacingTop=-1;spacingLeft=3;spacingRight=3;rotatable=0;labelPosition=right;points=[];portConstraint=eastwest;strokeColor=inherit;" vertex="1" parent="BPinNGArFGeDi93wMm6D-9">
          <mxGeometry y="180" width="260" height="8" as="geometry" />
        </mxCell>
        <mxCell id="BPinNGArFGeDi93wMm6D-12" value="+ InstallAPIs(): void&lt;br&gt;+ Setup(): void&lt;br&gt;+ InstallMiddlewares(): void&lt;br&gt;+ Run(): error&lt;br&gt;+ Close(): void&lt;br&gt;- ping(context.Context): error" style="text;strokeColor=none;fillColor=none;align=left;verticalAlign=top;spacingLeft=4;spacingRight=4;overflow=hidden;rotatable=0;points=[[0,0.5],[1,0.5]];portConstraint=eastwest;whiteSpace=wrap;html=1;" vertex="1" parent="BPinNGArFGeDi93wMm6D-9">
          <mxGeometry y="188" width="260" height="102" as="geometry" />
        </mxCell>
        <mxCell id="BPinNGArFGeDi93wMm6D-13" value="Extends" style="endArrow=block;endSize=16;endFill=0;html=1;rounded=0;entryX=0.476;entryY=1.077;entryDx=0;entryDy=0;entryPerimeter=0;exitX=0.51;exitY=-0.1;exitDx=0;exitDy=0;exitPerimeter=0;" edge="1" parent="WIyWlLk6GJQsqaUBKTNV-1" source="BPinNGArFGeDi93wMm6D-5" target="BPinNGArFGeDi93wMm6D-4">
          <mxGeometry width="160" relative="1" as="geometry">
            <mxPoint x="330" y="430" as="sourcePoint" />
            <mxPoint x="490" y="430" as="targetPoint" />
          </mxGeometry>
        </mxCell>
      </root>
    </mxGraphModel>
  </diagram>
</mxfile>
